<svg id="visual" viewBox="0 0 2560 1440" width="2560" height="1440" xmlns="http://www.w3.org/2000/svg" xmlns:xlink="http://www.w3.org/1999/xlink" version="1.1"><path d="M0 945L47.3 953.5C94.7 962 189.3 979 284.2 986.3C379 993.7 474 991.3 568.8 994.2C663.7 997 758.3 1005 853.2 1004.2C948 1003.3 1043 993.7 1137.8 974.5C1232.7 955.3 1327.3 926.7 1422.2 911C1517 895.3 1612 892.7 1706.8 907.3C1801.7 922 1896.3 954 1991.2 966.5C2086 979 2181 972 2275.8 955.2C2370.7 938.3 2465.3 911.7 2512.7 898.3L2560 885L2560 1441L2512.7 1441C2465.3 1441 2370.7 1441 2275.8 1441C2181 1441 2086 1441 1991.2 1441C1896.3 1441 1801.7 1441 1706.8 1441C1612 1441 1517 1441 1422.2 1441C1327.3 1441 1232.7 1441 1137.8 1441C1043 1441 948 1441 853.2 1441C758.3 1441 663.7 1441 568.8 1441C474 1441 379 1441 284.2 1441C189.3 1441 94.7 1441 47.3 1441L0 1441Z" fill="#12b886"></path><path d="M0 1077L47.3 1061.5C94.7 1046 189.3 1015 284.2 1010.5C379 1006 474 1028 568.8 1030.7C663.7 1033.3 758.3 1016.7 853.2 1033C948 1049.3 1043 1098.7 1137.8 1096.2C1232.7 1093.7 1327.3 1039.3 1422.2 1036.3C1517 1033.3 1612 1081.7 1706.8 1084C1801.7 1086.3 1896.3 1042.7 1991.2 1015.3C2086 988 2181 977 2275.8 993.5C2370.7 1010 2465.3 1054 2512.7 1076L2560 1098L2560 1441L2512.7 1441C2465.3 1441 2370.7 1441 2275.8 1441C2181 1441 2086 1441 1991.2 1441C1896.3 1441 1801.7 1441 1706.8 1441C1612 1441 1517 1441 1422.2 1441C1327.3 1441 1232.7 1441 1137.8 1441C1043 1441 948 1441 853.2 1441C758.3 1441 663.7 1441 568.8 1441C474 1441 379 1441 284.2 1441C189.3 1441 94.7 1441 47.3 1441L0 1441Z" fill="#009978"></path><path d="M0 1174L47.3 1171.7C94.7 1169.3 189.3 1164.7 284.2 1144.7C379 1124.7 474 1089.3 568.8 1098.7C663.7 1108 758.3 1162 853.2 1170.5C948 1179 1043 1142 1137.8 1129.2C1232.7 1116.3 1327.3 1127.7 1422.2 1144.8C1517 1162 1612 1185 1706.8 1193C1801.7 1201 1896.3 1194 1991.2 1178.2C2086 1162.3 2181 1137.7 2275.8 1141.2C2370.7 1144.7 2465.3 1176.3 2512.7 1192.2L2560 1208L2560 1441L2512.7 1441C2465.3 1441 2370.7 1441 2275.8 1441C2181 1441 2086 1441 1991.2 1441C1896.3 1441 1801.7 1441 1706.8 1441C1612 1441 1517 1441 1422.2 1441C1327.3 1441 1232.7 1441 1137.8 1441C1043 1441 948 1441 853.2 1441C758.3 1441 663.7 1441 568.8 1441C474 1441 379 1441 284.2 1441C189.3 1441 94.7 1441 47.3 1441L0 1441Z" fill="#007a67"></path><path d="M0 1248L47.3 1234.7C94.7 1221.3 189.3 1194.7 284.2 1201.5C379 1208.3 474 1248.7 568.8 1259.8C663.7 1271 758.3 1253 853.2 1242C948 1231 1043 1227 1137.8 1218.5C1232.7 1210 1327.3 1197 1422.2 1195.8C1517 1194.7 1612 1205.3 1706.8 1218C1801.7 1230.7 1896.3 1245.3 1991.2 1238.5C2086 1231.7 2181 1203.3 2275.8 1190.7C2370.7 1178 2465.3 1181 2512.7 1182.5L2560 1184L2560 1441L2512.7 1441C2465.3 1441 2370.7 1441 2275.8 1441C2181 1441 2086 1441 1991.2 1441C1896.3 1441 1801.7 1441 1706.8 1441C1612 1441 1517 1441 1422.2 1441C1327.3 1441 1232.7 1441 1137.8 1441C1043 1441 948 1441 853.2 1441C758.3 1441 663.7 1441 568.8 1441C474 1441 379 1441 284.2 1441C189.3 1441 94.7 1441 47.3 1441L0 1441Z" fill="#035d54"></path><path d="M0 1376L47.3 1369.3C94.7 1362.7 189.3 1349.3 284.2 1342.7C379 1336 474 1336 568.8 1330.8C663.7 1325.7 758.3 1315.3 853.2 1320.5C948 1325.7 1043 1346.3 1137.8 1356C1232.7 1365.7 1327.3 1364.3 1422.2 1356.2C1517 1348 1612 1333 1706.8 1331C1801.7 1329 1896.3 1340 1991.2 1337.2C2086 1334.3 2181 1317.7 2275.8 1306.7C2370.7 1295.7 2465.3 1290.3 2512.7 1287.7L2560 1285L2560 1441L2512.7 1441C2465.3 1441 2370.7 1441 2275.8 1441C2181 1441 2086 1441 1991.2 1441C1896.3 1441 1801.7 1441 1706.8 1441C1612 1441 1517 1441 1422.2 1441C1327.3 1441 1232.7 1441 1137.8 1441C1043 1441 948 1441 853.2 1441C758.3 1441 663.7 1441 568.8 1441C474 1441 379 1441 284.2 1441C189.3 1441 94.7 1441 47.3 1441L0 1441Z" fill="#0b413e"></path></svg>